<?xml version="1.0" encoding="utf-8"?><!-- Uploaded to: SVG Repo, www.svgrepo.com, Generator: SVG Repo Mixer Tools -->
<svg fill="#000000" width="800px" height="800px" viewBox="0 0 24 24" version="1.2" baseProfile="tiny" xmlns="http://www.w3.org/2000/svg"><path d="M19 18c.55 0 1 .45 1 1s-.45 1-1 1h-14c-.55 0-1-.45-1-1s.45-1 1-1h14m0-2h-14c-1.654 0-3 1.346-3 3s1.346 3 3 3h14c1.654 0 3-1.346 3-3s-1.346-3-3-3zM19 11c.55 0 1 .45 1 1s-.45 1-1 1h-14c-.55 0-1-.45-1-1s.45-1 1-1h14m0-2h-14c-1.654 0-3 1.346-3 3s1.346 3 3 3h14c1.654 0 3-1.346 3-3s-1.346-3-3-3zM19 4c.55 0 1 .45 1 1s-.45 1-1 1h-14c-.55 0-1-.45-1-1s.45-1 1-1h14m0-2h-14c-1.654 0-3 1.346-3 3s1.346 3 3 3h14c1.654 0 3-1.346 3-3s-1.346-3-3-3z"/></svg>